<mxfile host="app.diagrams.net" modified="2022-11-22T11:14:23.755Z" agent="5.0 (Windows NT 10.0; Win64; x64) AppleWebKit/537.36 (KHTML, like Gecko) Chrome/106.0.0.0 Safari/537.36 OPR/92.0.0.0" etag="mXjZ15il6QVDEjFKjKWW" version="20.5.3" type="github">
  <diagram id="H0S2KHMytncWIIM8KXZ4" name="Strona-1">
    <mxGraphModel dx="998" dy="579" grid="1" gridSize="10" guides="1" tooltips="1" connect="1" arrows="1" fold="1" page="1" pageScale="1" pageWidth="827" pageHeight="1169" math="0" shadow="0">
      <root>
        <mxCell id="0" />
        <mxCell id="1" parent="0" />
        <mxCell id="zwFXg28Wr7_zNNNJcgpt-1" value="Gracz&lt;br style=&quot;font-size: 14px;&quot;&gt;" style="shape=umlActor;verticalLabelPosition=bottom;verticalAlign=top;html=1;outlineConnect=0;collapsible=0;fontSize=14;" parent="1" vertex="1">
          <mxGeometry x="40" y="80" width="130" height="260" as="geometry" />
        </mxCell>
        <mxCell id="zwFXg28Wr7_zNNNJcgpt-4" value="Input" style="text;html=1;align=center;verticalAlign=middle;resizable=0;points=[];autosize=1;strokeColor=none;fillColor=none;fontSize=18;fontStyle=0" parent="1" vertex="1">
          <mxGeometry x="195" y="180" width="60" height="40" as="geometry" />
        </mxCell>
        <mxCell id="zwFXg28Wr7_zNNNJcgpt-10" value="&lt;font size=&quot;1&quot; style=&quot;&quot;&gt;&lt;b style=&quot;font-size: 15px;&quot;&gt;Silnik fizyki 2D&lt;/b&gt;&lt;/font&gt;" style="rounded=1;whiteSpace=wrap;html=1;fillColor=#dae8fc;gradientColor=#7ea6e0;strokeColor=#6c8ebf;" parent="1" vertex="1">
          <mxGeometry x="690" y="185" width="130" height="90" as="geometry" />
        </mxCell>
        <mxCell id="zwFXg28Wr7_zNNNJcgpt-11" value="&lt;b&gt;&lt;font style=&quot;font-size: 13px;&quot;&gt;Interfejs&lt;/font&gt;&lt;/b&gt;" style="rounded=1;whiteSpace=wrap;html=1;" parent="1" vertex="1">
          <mxGeometry x="280" y="200" width="120" height="60" as="geometry" />
        </mxCell>
        <mxCell id="zwFXg28Wr7_zNNNJcgpt-12" value="" style="endArrow=classic;html=1;rounded=0;entryX=0;entryY=0.5;entryDx=0;entryDy=0;" parent="1" edge="1" target="zwFXg28Wr7_zNNNJcgpt-11">
          <mxGeometry width="50" height="50" relative="1" as="geometry">
            <mxPoint x="180" y="230" as="sourcePoint" />
            <mxPoint x="250" y="230" as="targetPoint" />
          </mxGeometry>
        </mxCell>
        <mxCell id="zwFXg28Wr7_zNNNJcgpt-14" value="&lt;font size=&quot;1&quot; style=&quot;&quot;&gt;&lt;b style=&quot;font-size: 18px;&quot;&gt;Audio&lt;/b&gt;&lt;/font&gt;" style="rounded=1;whiteSpace=wrap;html=1;fillColor=#FFFF00;strokeColor=#d6b656;" parent="1" vertex="1">
          <mxGeometry x="480" y="40" width="120" height="60" as="geometry" />
        </mxCell>
        <mxCell id="zwFXg28Wr7_zNNNJcgpt-15" value="&lt;b&gt;&lt;font style=&quot;font-size: 13px;&quot;&gt;Funkcje graficzne&amp;nbsp;&lt;/font&gt;&lt;/b&gt;" style="rounded=1;whiteSpace=wrap;html=1;fillColor=#e6d0de;gradientColor=#d5739d;strokeColor=#996185;" parent="1" vertex="1">
          <mxGeometry x="480" y="370" width="120" height="60" as="geometry" />
        </mxCell>
        <mxCell id="zwFXg28Wr7_zNNNJcgpt-16" value="&lt;font style=&quot;font-size: 17px;&quot;&gt;&lt;b&gt;Obiekty&lt;/b&gt;&lt;/font&gt;" style="rounded=1;whiteSpace=wrap;html=1;fillColor=#A3EF30;gradientColor=none;" parent="1" vertex="1">
          <mxGeometry x="480" y="200" width="120" height="60" as="geometry" />
        </mxCell>
        <mxCell id="2U4-hBHOdkxEe4YxiRbD-1" value="" style="endArrow=classic;html=1;rounded=0;fontSize=18;" edge="1" parent="1" source="zwFXg28Wr7_zNNNJcgpt-14" target="zwFXg28Wr7_zNNNJcgpt-1">
          <mxGeometry width="50" height="50" relative="1" as="geometry">
            <mxPoint x="400" y="100" as="sourcePoint" />
            <mxPoint x="450" y="50" as="targetPoint" />
            <Array as="points">
              <mxPoint x="310" y="70" />
            </Array>
          </mxGeometry>
        </mxCell>
        <mxCell id="2U4-hBHOdkxEe4YxiRbD-2" value="Output" style="text;html=1;align=center;verticalAlign=middle;resizable=0;points=[];autosize=1;strokeColor=none;fillColor=none;fontSize=18;fontStyle=0" vertex="1" parent="1">
          <mxGeometry x="180" y="80" width="80" height="40" as="geometry" />
        </mxCell>
        <mxCell id="2U4-hBHOdkxEe4YxiRbD-3" value="" style="endArrow=classic;html=1;rounded=0;fontSize=13;exitX=1;exitY=0.5;exitDx=0;exitDy=0;entryX=0;entryY=0.5;entryDx=0;entryDy=0;" edge="1" parent="1" source="zwFXg28Wr7_zNNNJcgpt-11" target="zwFXg28Wr7_zNNNJcgpt-16">
          <mxGeometry width="50" height="50" relative="1" as="geometry">
            <mxPoint x="470" y="230" as="sourcePoint" />
            <mxPoint x="520" y="180" as="targetPoint" />
          </mxGeometry>
        </mxCell>
        <mxCell id="2U4-hBHOdkxEe4YxiRbD-4" value="" style="shape=flexArrow;endArrow=classic;startArrow=classic;html=1;rounded=0;fontSize=13;entryX=0;entryY=0.5;entryDx=0;entryDy=0;exitX=1;exitY=0.5;exitDx=0;exitDy=0;" edge="1" parent="1" source="zwFXg28Wr7_zNNNJcgpt-16" target="zwFXg28Wr7_zNNNJcgpt-10">
          <mxGeometry width="100" height="100" relative="1" as="geometry">
            <mxPoint x="530" y="390" as="sourcePoint" />
            <mxPoint x="630" y="290" as="targetPoint" />
          </mxGeometry>
        </mxCell>
        <mxCell id="2U4-hBHOdkxEe4YxiRbD-5" value="" style="shape=flexArrow;endArrow=classic;startArrow=classic;html=1;rounded=0;fontSize=13;entryX=0.5;entryY=1;entryDx=0;entryDy=0;" edge="1" parent="1" source="zwFXg28Wr7_zNNNJcgpt-16" target="zwFXg28Wr7_zNNNJcgpt-14">
          <mxGeometry width="100" height="100" relative="1" as="geometry">
            <mxPoint x="450" y="210" as="sourcePoint" />
            <mxPoint x="550" y="110" as="targetPoint" />
          </mxGeometry>
        </mxCell>
        <mxCell id="2U4-hBHOdkxEe4YxiRbD-9" value="" style="shape=flexArrow;endArrow=classic;startArrow=classic;html=1;rounded=0;fontSize=13;entryX=0.5;entryY=1;entryDx=0;entryDy=0;exitX=0.5;exitY=0;exitDx=0;exitDy=0;" edge="1" parent="1" source="zwFXg28Wr7_zNNNJcgpt-15" target="zwFXg28Wr7_zNNNJcgpt-16">
          <mxGeometry width="100" height="100" relative="1" as="geometry">
            <mxPoint x="510" y="360" as="sourcePoint" />
            <mxPoint x="610" y="260" as="targetPoint" />
          </mxGeometry>
        </mxCell>
        <mxCell id="2U4-hBHOdkxEe4YxiRbD-11" value="Silnik&amp;nbsp;" style="swimlane;whiteSpace=wrap;html=1;fontSize=13;" vertex="1" parent="1">
          <mxGeometry x="260" y="10" width="600" height="480" as="geometry" />
        </mxCell>
        <mxCell id="2U4-hBHOdkxEe4YxiRbD-13" value="GPU" style="swimlane;whiteSpace=wrap;html=1;fontSize=14;fillColor=#fad7ac;strokeColor=#b46504;" vertex="1" parent="2U4-hBHOdkxEe4YxiRbD-11">
          <mxGeometry x="190" y="300" width="190" height="150" as="geometry" />
        </mxCell>
        <mxCell id="2U4-hBHOdkxEe4YxiRbD-14" value="CPU&lt;br&gt;" style="swimlane;whiteSpace=wrap;html=1;fontSize=14;fillColor=#b1ddf0;strokeColor=#10739e;" vertex="1" parent="2U4-hBHOdkxEe4YxiRbD-11">
          <mxGeometry x="190" y="140" width="190" height="140" as="geometry" />
        </mxCell>
      </root>
    </mxGraphModel>
  </diagram>
</mxfile>
